<?xml version="1.0" encoding="UTF-8" standalone="no" ?>
<!DOCTYPE svg PUBLIC "-//W3C//DTD SVG 1.1//EN" "http://www.w3.org/Graphics/SVG/1.1/DTD/svg11.dtd">
<svg xmlns="http://www.w3.org/2000/svg" xmlns:xlink="http://www.w3.org/1999/xlink" version="1.1" width="1080" height="1080" viewBox="0 0 1080 1080" xml:space="preserve">
<desc>Created with Fabric.js 5.2.4</desc>
<defs>
</defs>
<rect x="0" y="0" width="100%" height="100%" fill="transparent"></rect>
<g transform="matrix(1 0 0 1 540 540)" id="80685809-21b4-4b38-9cc0-abb125763eee"  >
</g>
<g transform="matrix(1 0 0 1 540 540)" id="3e42db52-5e8d-47c2-9560-6479c3398f6f"  >
<rect style="stroke: none; stroke-width: 1; stroke-dasharray: none; stroke-linecap: butt; stroke-dashoffset: 0; stroke-linejoin: miter; stroke-miterlimit: 4; fill: rgb(255,255,255); fill-rule: nonzero; opacity: 1; visibility: hidden;" vector-effect="non-scaling-stroke"  x="-540" y="-540" rx="0" ry="0" width="1080" height="1080" />
</g>
<g transform="matrix(8.5 0 0 8.5 540 540)"  >
<path style="stroke: rgb(0,0,0); stroke-width: 0; stroke-dasharray: none; stroke-linecap: butt; stroke-dashoffset: 0; stroke-linejoin: miter; stroke-miterlimit: 4; fill: rgb(132,195,168); fill-rule: nonzero; opacity: 1;" vector-effect="non-scaling-stroke"  transform=" translate(-59.44, -61.44)" d="M 1.432 20.714 C 10.859 27.189999999999998 20.211 33.703 28.104999999999997 42.089 C 23.58 62.076 41.64 78.045 58.111 87.453 C 64.559 91.136 67.40899999999999 93.718 74.58699999999999 92.477 L 102.85499999999999 120.173 C 49.657 138.039 -10.045 63.084 1.432 20.714 L 1.432 20.714 z M 81.874 85.356 L 88.07499999999999 79.05799999999999 C 89.86299999999999 77.23899999999999 92.81499999999998 77.216 94.63399999999999 79.005 L 117.49599999999998 101.514 C 119.31399999999998 103.303 119.33699999999997 106.255 117.54899999999998 108.073 L 111.34599999999998 114.372 C 109.55699999999997 116.19 106.60499999999998 116.213 104.78599999999997 114.424 L 81.924 91.915 C 80.105 90.127 80.083 87.175 81.874 85.356 L 81.874 85.356 z M 7.004 7.467 L 11.504 2.0029999999999992 C 13.433 -0.33900000000000086 16.929 -0.6770000000000009 19.271 1.2519999999999993 L 42.676 20.532999999999998 C 45.018 22.464 45.353 25.958 43.426 28.302999999999997 L 38.924 33.763999999999996 C 36.994 36.108999999999995 33.499 36.443999999999996 31.156 34.51499999999999 L 7.755 15.234 C 5.413 13.305 5.073 9.809 7.004 7.467 L 7.004 7.467 z" stroke-linecap="round" />
</g>
<g transform="matrix(NaN NaN NaN NaN 0 0)"  >
<g style=""   >
</g>
</g>
<g transform="matrix(NaN NaN NaN NaN 0 0)"  >
<g style=""   >
</g>
</g>
<g transform="matrix(NaN NaN NaN NaN 0 0)"  >
<g style=""   >
</g>
</g>
<g transform="matrix(NaN NaN NaN NaN 0 0)"  >
<g style=""   >
</g>
</g>
</svg>