<?xml version="1.0" encoding="UTF-8" standalone="no" ?>
<!DOCTYPE svg PUBLIC "-//W3C//DTD SVG 1.1//EN" "http://www.w3.org/Graphics/SVG/1.1/DTD/svg11.dtd">
<svg xmlns="http://www.w3.org/2000/svg" xmlns:xlink="http://www.w3.org/1999/xlink" version="1.1" width="1080" height="1080" viewBox="0 0 1080 1080" xml:space="preserve">
<desc>Created with Fabric.js 5.2.4</desc>
<defs>
</defs>
<rect x="0" y="0" width="100%" height="100%" fill="transparent"></rect>
<g transform="matrix(1 0 0 1 540 540)" id="3e42db52-5e8d-47c2-9560-6479c3398f6f"  >
<rect style="stroke: none; stroke-width: 1; stroke-dasharray: none; stroke-linecap: butt; stroke-dashoffset: 0; stroke-linejoin: miter; stroke-miterlimit: 4; fill: rgb(255,255,255); fill-rule: nonzero; opacity: 1; visibility: hidden;" vector-effect="non-scaling-stroke"  x="-540" y="-540" rx="0" ry="0" width="1080" height="1080" />
</g>
<g transform="matrix(1 0 0 1 540 540)" id="80685809-21b4-4b38-9cc0-abb125763eee"  >
</g>
<g transform="matrix(0 0 0 0 0 0)"  >
<g style=""   >
</g>
</g>
<g transform="matrix(0 0 0 0 0 0)"  >
<g style=""   >
</g>
</g>
<g transform="matrix(0 0 0 0 0 0)"  >
<g style=""   >
</g>
</g>
<g transform="matrix(0 0 0 0 0 0)"  >
<g style=""   >
</g>
</g>
<g transform="matrix(0 0 0 0 0 0)"  >
<g style=""   >
</g>
</g>
<g transform="matrix(0 0 0 0 0 0)"  >
<g style=""   >
</g>
</g>
<g transform="matrix(0 0 0 0 0 0)"  >
<g style=""   >
</g>
</g>
<g transform="matrix(0 0 0 0 0 0)"  >
<g style=""   >
</g>
</g>
<g transform="matrix(8.47 0 0 8.47 534.48 534.48)"  >
<path style="stroke: rgb(0,0,0); stroke-width: 0; stroke-dasharray: none; stroke-linecap: butt; stroke-dashoffset: 0; stroke-linejoin: miter; stroke-miterlimit: 4; fill: rgb(132,195,168); fill-rule: nonzero; opacity: 1;" vector-effect="non-scaling-stroke"  transform=" translate(-61.44, -61.44)" d="M 5.794 62.906 C 8.549 65.362 11.302 67.684 14.059999999999999 69.87 C 17.7 64.342 21.665999999999997 59.273 25.976999999999997 54.69200000000001 C 25.162999999999997 53.159000000000006 24.702999999999996 51.40800000000001 24.702999999999996 49.553000000000004 C 24.702999999999996 48.63700000000001 24.813999999999997 47.748000000000005 25.026999999999997 46.895 C 20.522999999999996 43.977000000000004 15.887999999999998 40.723000000000006 11.061999999999998 37.097 C 7.492999999999998 44.457 5.494999999999997 52.714 5.494999999999997 61.438 L 5.506999999999997 61.438 L 5.506999999999997 61.438 L 5.506999999999997 61.441 L 5.494 61.441 C 5.494 62.033 5.505999999999999 62.623000000000005 5.524 63.21 L 5.794 62.906 L 5.794 62.906 z M 13.726 32.231 C 18.557000000000002 35.875 23.18 39.141000000000005 27.664 42.062 C 29.664 39.928 32.510000000000005 38.595 35.663000000000004 38.595 C 38.164 38.595 40.468 39.434 42.313 40.845 C 43.633 39.97 44.980000000000004 39.126 46.35 38.321 C 52.058 34.964999999999996 58.183 32.227999999999994 64.76 30.144 C 64.712 29.708 64.69000000000001 29.266 64.69000000000001 28.822 C 64.69000000000001 27.148 65.025 25.552 65.635 24.101 C 58.95400000000001 18.439999999999998 51.042 13.427 41.935 8.998 C 34.336 11.828 27.519000000000002 16.262 21.891000000000002 21.89 C 18.783 24.995 16.039 28.467 13.726 32.231 L 13.726 32.231 z M 49.604 6.753 C 56.806 10.629 63.231 14.903 68.855 19.62 C 70.735 17.972 73.125 16.888 75.75500000000001 16.638 C 76.34500000000001 13.749000000000002 76.90200000000002 10.812000000000001 77.43100000000001 7.819000000000001 C 72.36300000000001 6.308000000000001 66.99700000000001 5.492000000000001 61.44200000000001 5.492000000000001 L 61.44200000000001 5.5040000000000004 L 61.44200000000001 5.5040000000000004 L 61.437000000000005 5.5040000000000004 L 61.437000000000005 5.492 C 57.377 5.492 53.42 5.93 49.604 6.753 L 49.604 6.753 z M 82.68 9.679 C 82.215 12.278 81.72800000000001 14.838000000000001 81.218 17.357 C 84.885 18.733 87.717 21.817 88.744 25.641 C 93.708 25.276 98.871 25.205 104.248 25.441 C 103.212 24.212 102.128 23.024 100.992 21.887 C 95.794 16.692 89.583 12.516 82.68 9.679 L 82.68 9.679 z M 108.505 31.204 C 101.634 30.689 95.118 30.676000000000002 88.943 31.141000000000002 C 88.437 33.783 87.079 36.123000000000005 85.17 37.865 C 86.794 40.368 88.266 42.962 89.581 45.650000000000006 C 91.497 49.571000000000005 93.075 53.68900000000001 94.32000000000001 58.004000000000005 C 94.69900000000001 57.965 95.084 57.943000000000005 95.47600000000001 57.943000000000005 C 100.39500000000001 57.943000000000005 104.55800000000002 61.18300000000001 105.94400000000002 65.65100000000001 C 109.57000000000002 65.778 113.31900000000002 65.84500000000001 117.21100000000001 65.86900000000001 C 117.32600000000001 64.40600000000002 117.38800000000002 62.93100000000001 117.38800000000002 61.442000000000014 L 117.37600000000002 61.442000000000014 L 117.37600000000002 61.439000000000014 L 117.37600000000002 61.43700000000001 L 117.38800000000002 61.43700000000001 C 117.385 50.302 114.124 39.925 108.505 31.204 L 108.505 31.204 z M 116.508 71.345 C 112.963 71.32 109.53399999999999 71.258 106.205 71.148 C 105.316 75.41799999999999 101.939 78.779 97.658 79.645 C 97.846 84.762 97.67 90.112 97.116 95.698 C 100.255 95.36699999999999 103.438 94.91099999999999 106.67699999999999 94.338 C 111.56 87.64 114.99 79.823 116.508 71.345 L 116.508 71.345 z M 109.836 99.284 L 109.848 99.34100000000001 L 109.782 99.35300000000001 C 108.261 101.29400000000001 106.62599999999999 103.14000000000001 104.88199999999999 104.88400000000001 C 93.773 115.99300000000001 78.41299999999998 122.86600000000001 61.44399999999999 122.86800000000002 L 61.44399999999999 122.88000000000002 L 61.441999999999986 122.88000000000002 L 61.438999999999986 122.88000000000002 L 61.438999999999986 122.86800000000002 C 44.469999999999985 122.86800000000002 29.110999999999983 115.99300000000002 17.996999999999986 104.88100000000003 C 6.887 93.77 0.013 78.41 0.011 61.441 L 0 61.441 L 0 61.438 L 0 61.438 L 0.011 61.438 C 0.011 44.467 6.8870000000000005 29.108000000000004 17.999 17.996000000000002 C 29.110999999999997 6.884 44.467 0.011 61.437 0.011 L 61.437 0 L 61.442 0 L 61.442 0 L 61.442 0.011 C 78.413 0.011 93.77199999999999 6.885 104.88300000000001 17.999 C 115.995 29.107999999999997 122.86800000000001 44.467 122.86800000000001 61.437 L 122.88000000000001 61.437 L 122.88000000000001 61.439 L 122.88000000000001 61.442 L 122.86800000000001 61.442 C 122.868 75.721 118 88.857 109.836 99.284 L 109.836 99.284 z M 101.239 100.735 C 99.631 100.949 98.037 101.134 96.45400000000001 101.287 C 96.257 102.70200000000001 96.03500000000001 104.131 95.79400000000001 105.57700000000001 C 97.62 104.15500000000002 99.35700000000001 102.62500000000001 100.99200000000002 100.99000000000001 L 101.239 100.735 L 101.239 100.735 z M 89.42 109.882 C 89.98 107.09700000000001 90.456 104.37100000000001 90.849 101.702 C 80.828 102.223 71.251 101.5 61.983000000000004 99.54299999999999 C 60.17100000000001 101.692 57.462 103.06299999999999 54.432 103.06299999999999 C 54.207 103.06299999999999 53.985 103.05399999999999 53.767 103.04099999999998 C 52.018 107.50199999999998 50.325 111.84199999999998 48.773 115.94099999999999 C 52.843 116.88399999999999 57.085 117.38599999999998 61.438 117.38599999999998 L 61.438 117.37399999999998 L 61.441 117.37399999999998 L 61.443000000000005 117.37399999999998 L 61.443000000000005 117.38599999999998 C 71.632 117.386 81.188 114.653 89.42 109.882 L 89.42 109.882 z M 43.483 114.436 C 45.181999999999995 109.92 46.878 105.56 48.601 101.158 C 46.431 99.569 44.934 97.113 44.619 94.299 C 34.678 90.36000000000001 25.04 84.89500000000001 15.511 77.89500000000001 C 13.982999999999999 80.46900000000001 12.52 83.13700000000001 11.117999999999999 85.9 C 13.857 91.519 17.515 96.617 21.89 100.992 C 27.899 106.999 35.263 111.648 43.483 114.436 L 43.483 114.436 z M 8.406 79.288 C 9.288 77.678 10.193000000000001 76.1 11.120000000000001 74.553 C 9.490000000000002 73.27 7.861000000000001 71.941 6.235000000000001 70.569 C 6.728 73.56 7.458 76.477 8.406 79.288 L 8.406 79.288 z M 45.71 45.173 C 46.297000000000004 46.515 46.624 47.996 46.624 49.554 C 46.624 50.602000000000004 46.475 51.617000000000004 46.2 52.577000000000005 C 52.221000000000004 55.45700000000001 58.139 57.74300000000001 64.137 59.548 C 66.31700000000001 53.021 68.412 46.243 70.363 39.152 C 68.83 38.176 67.53 36.870000000000005 66.562 35.333 C 60.317 37.297 54.516 39.879999999999995 49.123 43.05 C 47.969 43.728 46.828 44.438 45.71 45.173 L 45.71 45.173 z M 43.39 57.325 C 41.409 59.298 38.678 60.516000000000005 35.662 60.516000000000005 C 33.46 60.516000000000005 31.408 59.865 29.688 58.749 C 25.618 63.108000000000004 21.872 67.94 18.421999999999997 73.212 C 27.357 79.816 36.357 85.00200000000001 45.592999999999996 88.777 C 47.214999999999996 85.541 50.56399999999999 83.318 54.42999999999999 83.318 C 54.80199999999999 83.318 55.166999999999994 83.339 55.529999999999994 83.38 C 57.82699999999999 77.378 60.12899999999999 71.19 62.36299999999999 64.75099999999999 C 56.01 62.831 49.751 60.396 43.39 57.325 L 43.39 57.325 z M 80.367 40.572 C 79.27600000000001 40.889 78.122 41.059000000000005 76.927 41.059000000000005 C 76.465 41.059000000000005 76.007 41.036 75.558 40.984 C 73.635 47.946 71.58000000000001 54.604 69.44200000000001 61.014 C 74.69200000000001 62.341 80.048 63.334 85.637 64.065 C 86.45 62.416 87.664 61.003 89.155 59.951 C 87.98 55.783 86.47200000000001 51.821 84.635 48.061 C 83.369 45.472 81.945 42.979 80.367 40.572 L 80.367 40.572 z M 92.146 79.347 C 87.889 77.99199999999999 84.76 74.107 84.529 69.458 C 78.721 68.685 73.143 67.637 67.669 66.235 C 65.36 72.897 62.980999999999995 79.295 60.607 85.492 C 62.859 87.302 64.301 90.08 64.301 93.191 C 64.301 93.601 64.274 94.004 64.226 94.402 C 72.982 96.143 82.047 96.731 91.549 96.159 C 92.175 90.272 92.37 84.671 92.146 79.347 L 92.146 79.347 z" stroke-linecap="round" />
</g>
<g transform="matrix(0 0 0 0 0 0)"  >
<g style=""   >
</g>
</g>
<g transform="matrix(NaN NaN NaN NaN 0 0)"  >
<g style=""   >
</g>
</g>
</svg>