<?xml version="1.0" encoding="UTF-8" standalone="no" ?>
<!DOCTYPE svg PUBLIC "-//W3C//DTD SVG 1.1//EN" "http://www.w3.org/Graphics/SVG/1.1/DTD/svg11.dtd">
<svg xmlns="http://www.w3.org/2000/svg" xmlns:xlink="http://www.w3.org/1999/xlink" version="1.1" width="1080" height="1080" viewBox="0 0 1080 1080" xml:space="preserve">
<desc>Created with Fabric.js 5.2.4</desc>
<defs>
</defs>
<rect x="0" y="0" width="100%" height="100%" fill="transparent"></rect>
<g transform="matrix(1 0 0 1 540 540)" id="80685809-21b4-4b38-9cc0-abb125763eee"  >
</g>
<g transform="matrix(1 0 0 1 540 540)" id="3e42db52-5e8d-47c2-9560-6479c3398f6f"  >
<rect style="stroke: none; stroke-width: 1; stroke-dasharray: none; stroke-linecap: butt; stroke-dashoffset: 0; stroke-linejoin: miter; stroke-miterlimit: 4; fill: rgb(255,255,255); fill-rule: nonzero; opacity: 1; visibility: hidden;" vector-effect="non-scaling-stroke"  x="-540" y="-540" rx="0" ry="0" width="1080" height="1080" />
</g>
<g transform="matrix(NaN NaN NaN NaN 0 0)"  >
<g style=""   >
</g>
</g>
<g transform="matrix(NaN NaN NaN NaN 0 0)"  >
<g style=""   >
</g>
</g>
<g transform="matrix(NaN NaN NaN NaN 0 0)"  >
<g style=""   >
</g>
</g>
<g transform="matrix(NaN NaN NaN NaN 0 0)"  >
<g style=""   >
</g>
</g>
<g transform="matrix(2.07 0 0 2.07 536.46 536.44)" id="573a2c98-7c9d-4a24-a3ab-cc8173bf0fb3"  >
<path style="stroke: rgb(0,0,0); stroke-width: 0; stroke-dasharray: none; stroke-linecap: butt; stroke-dashoffset: 0; stroke-linejoin: miter; stroke-miterlimit: 4; fill: rgb(132,195,168); fill-rule: nonzero; opacity: 1;" vector-effect="non-scaling-stroke"  transform=" translate(-254.5, -255.76)" d="M 434.762 74.334 C 387.553 26.81 323.245 0 256.236 0 L 255.468 0 C 115.795 0.001 2.121 113.696 2.121 253.456 L 2.122 253.47099999999998 C 2.1303628817784777 297.9407875411335 13.836003812115006 341.6260518828535 36.06399999999995 380.14199999999994 L 0 511.514 L 134.373 476.245 C 171.51263670038168 496.48585699845455 213.12791279576982 507.1086639851007 255.42499999999995 507.145 L 255.428 507.145 L 255.481 507.145 C 395.472 507.145 509 393.616 509 253.626 C 509 186.401 482.258 121.899 434.748 74.38900000000001 L 434.762 74.334 z M 255.555 464.453 C 217.80200000000002 464.453 180.69400000000002 454.23299999999995 148.262 434.974 L 140.542 430.372 L 60.801 451.261 L 82.00800000000001 373.535 L 77.02400000000002 365.56 C 55.87700000000002 331.954 44.609000000000016 292.976 44.609000000000016 253.252 C 44.609000000000016 136.88100000000003 138.98100000000002 42.509000000000015 255.35000000000002 42.509000000000015 C 311.36100000000005 42.509000000000015 365.108 64.81600000000002 404.627 104.489 C 444.1573772966158 144.03844877052694 466.36594745553856 197.66611733499633 466.371 253.58400000000003 C 466.371 370.024 371.96799999999996 464.453 255.527 464.453 L 255.55499999999998 464.453 z M 371.13800000000003 306.539 C 364.77500000000003 303.337 333.66400000000004 288.067 327.89500000000004 285.94599999999997 C 322.12600000000003 283.825 317.88500000000005 282.74399999999997 313.58000000000004 289.14899999999994 C 309.27500000000003 295.55299999999994 297.20700000000005 309.74199999999996 293.51700000000005 314.00399999999996 C 289.82700000000006 318.26699999999994 286.11600000000004 318.81899999999996 279.8380000000001 315.616 C 273.56000000000006 312.414 253.05200000000008 305.733 228.93900000000008 284.144 C 215.04916084702785 271.33622597535077 203.11790395299002 256.55583439728866 193.52800000000008 240.27700000000002 C 189.8160000000001 233.91400000000002 193.12400000000008 230.50000000000003 196.34800000000007 227.40400000000002 C 199.57200000000006 224.30800000000002 202.71100000000007 220.02300000000002 205.82800000000006 216.312 C 208.4630029724728 213.11602421595398 210.6056604569741 209.54425429881374 212.18500000000006 205.715 C 213.8959445944405 202.16905064913485 213.70495815392354 197.99968130792837 211.67700000000005 194.625 C 209.95900000000006 191.445 197.23300000000006 160.268 192.14300000000006 147.565 C 187.05300000000005 134.862 181.77300000000005 136.962 177.87100000000007 136.664 C 173.96900000000008 136.367 169.96000000000006 136.474 165.78200000000007 136.474 C 159.27076338697364 136.6265899052209 153.11996916312404 139.49495427122386 148.81800000000007 144.385 C 143.11100000000008 150.683 126.71800000000007 166.058 126.71800000000007 197.23399999999998 C 126.71800000000007 228.40999999999997 149.38900000000007 258.483 152.57000000000008 262.76599999999996 C 155.75200000000007 267.04999999999995 197.23300000000006 330.99299999999994 260.85800000000006 358.41499999999996 C 275.95700000000005 364.90399999999994 287.7490000000001 368.80699999999996 296.91100000000006 371.818 C 305.0898139563953 374.2814270848672 313.5852515304297 375.53404593402087 322.12700000000007 375.536 C 327.03200000000004 375.536 331.94700000000006 375.12 336.77700000000004 374.299 C 348.951 372.517 374.23 359.008 379.55300000000005 344.226 C 384.8760000000001 329.444 384.85600000000005 316.656 383.26400000000007 314.133 C 381.67300000000006 311.609 377.56000000000006 309.764 371.17600000000004 306.518 L 371.13800000000003 306.539 z" stroke-linecap="round" />
</g>
<g transform="matrix(NaN NaN NaN NaN 0 0)"  >
<g style=""   >
</g>
</g>
<g transform="matrix(NaN NaN NaN NaN 0 0)"  >
<g style=""   >
</g>
</g>
</svg>